<?xml version="1.0" standalone="no"?>
<!DOCTYPE svg PUBLIC "-//W3C//DTD SVG 1.1//EN" "http://www.w3.org/Graphics/SVG/1.1/DTD/svg11.dtd" >
<svg xmlns="http://www.w3.org/2000/svg">
<metadata></metadata>
<defs>
<font id="ars_maquette_prolight_italic" horiz-adv-x="1173" >
<font-face units-per-em="2048" ascent="1638" descent="-410" />
<missing-glyph horiz-adv-x="552" />
<glyph unicode="&#xfb01;" horiz-adv-x="1101" d="M106 0l199 938h-182l24 117h183l39 178q55 252 299 252q100 0 180 -43l-51 -111q-58 39 -142 39q-129 0 -163 -158l-33 -157h252l-25 -117h-254l-199 -938h-127zM676 0l223 1055h127l-223 -1055h-127zM950 1298l35 164h127l-35 -164h-127z" />
<glyph unicode="&#xfb02;" horiz-adv-x="1097" d="M106 0l199 938h-182l24 117h183l39 178q55 252 299 252q100 0 180 -43l-51 -111q-58 39 -142 39q-129 0 -163 -158l-33 -157h252l-25 -117h-254l-199 -938h-127zM676 0l309 1462h127l-309 -1462h-127z" />
<glyph horiz-adv-x="2048" />
<glyph horiz-adv-x="2048" />
<glyph unicode="&#xd;" horiz-adv-x="2048" />
<glyph unicode=" "  horiz-adv-x="552" />
<glyph unicode="&#x09;" horiz-adv-x="552" />
<glyph unicode="&#xa0;" horiz-adv-x="552" />
<glyph unicode="!" horiz-adv-x="536" d="M70 0l41 197h153l-43 -197h-151zM193 395l104 682l63 287h152l-61 -287l-197 -682h-61z" />
<glyph unicode="&#x22;" horiz-adv-x="733" d="M231 895l35 412l13 57h155l-12 -57l-137 -412h-54zM571 895l37 412l13 57h153l-12 -57l-139 -412h-52z" />
<glyph unicode="#" horiz-adv-x="1312" d="M66 393l18 88h250l153 402h-235l18 88h248l154 393h92l-152 -393h349l151 393h94l-151 -393h233l-18 -88h-248l-154 -402h236l-19 -88h-249l-152 -393h-94l153 393h-350l-151 -393h-92l151 393h-235zM426 481h348l154 402h-348z" />
<glyph unicode="$" d="M25 248l131 74q45 -83 122 -135t171 -72l114 538q-175 81 -258.5 162.5t-83.5 206.5q0 88 37 159.5t99 116.5t141.5 69t167.5 24q35 0 53 -2l33 155h102l-37 -174q101 -27 181 -85.5t126 -133.5l-112 -78q-79 122 -224 168l-104 -485q69 -32 114.5 -57t95 -60t77.5 -71 t46.5 -85.5t18.5 -107.5q0 -175 -136.5 -287.5t-352.5 -112.5q-5 0 -14.5 1t-14.5 1l-37 -178h-100l39 189q-135 23 -240 93t-155 167zM356 1040q0 -80 54 -129.5t184 -111.5l96 461q-10 2 -35 2q-129 0 -214 -57.5t-85 -164.5zM545 102h18q146 0 240 73t94 196 q0 75 -56 126.5t-188 114.5z" />
<glyph unicode="%" horiz-adv-x="1554" d="M199 1028q0 148 93 251t236 103q128 0 203.5 -84.5t75.5 -214.5q0 -147 -93.5 -250.5t-236.5 -103.5q-126 0 -202 85t-76 214zM256 0l973 1364h110l-972 -1364h-111zM301 1028q0 -94 46.5 -150.5t131.5 -56.5q100 0 164 75.5t64 186.5q0 94 -47.5 150.5t-133.5 56.5 q-99 0 -162 -75.5t-63 -186.5zM788 281q0 148 93.5 251t236.5 103q128 0 203.5 -84.5t75.5 -214.5q0 -147 -93.5 -250.5t-236.5 -103.5q-126 0 -202.5 85t-76.5 214zM891 281q0 -94 46.5 -150.5t131.5 -56.5q100 0 163.5 75.5t63.5 186.5q0 94 -47 150.5t-133 56.5 q-99 0 -162 -75.5t-63 -186.5z" />
<glyph unicode="&#x26;" horiz-adv-x="1353" d="M43 362q0 62 19 118t60.5 110.5t116 101.5t177.5 80q-74 151 -74 272q0 155 97.5 250t248.5 95q137 0 229.5 -78t92.5 -209q0 -137 -105.5 -231.5t-312.5 -161.5q171 -304 264 -441q135 144 217 371l119 -41q-34 -101 -99 -217t-161 -211q66 -74 160 -74q59 0 104 31 l35 -113q-68 -39 -156 -39q-150 0 -246 113q-73 -50 -168.5 -81.5t-193.5 -31.5q-117 0 -211.5 43t-153.5 132.5t-59 211.5zM184 362q0 -124 83.5 -196t213.5 -72q145 0 273 88q-127 190 -289 488q-281 -90 -281 -308zM473 1047q0 -101 70 -238q184 58 260 126t76 157 q0 79 -52.5 127.5t-140.5 48.5q-94 0 -153.5 -58t-59.5 -163z" />
<glyph unicode="'" horiz-adv-x="393" d="M231 895l37 412l13 57h153l-12 -57l-139 -412h-52z" />
<glyph unicode="(" horiz-adv-x="616" d="M94 496q0 322 164 579t457 410l55 -105q-263 -137 -410 -367t-147 -517q0 -204 75.5 -369.5t198.5 -286.5l-84 -84q-139 137 -224 324t-85 416z" />
<glyph unicode=")" horiz-adv-x="628" d="M-129 -139q263 137 411 367t148 517q0 203 -76 369t-200 287l84 84q139 -138 225 -324.5t86 -415.5q0 -321 -165 -578.5t-458 -410.5z" />
<glyph unicode="*" horiz-adv-x="944" d="M209 1073l18 84q147 -29 289 -76q-58 135 -106 281l84 27q45 -132 79 -289q40 56 72.5 97t53 64.5t63.5 69.5l65 -57q-92 -106 -211 -213q154 -17 295 -49l-18 -84q-147 29 -289 76q62 -145 107 -281l-84 -27q-47 141 -80 289q-58 -80 -93 -122.5t-96 -108.5l-65 57 q92 106 211 213q-154 17 -295 49z" />
<glyph unicode="+" d="M119 565l24 115h404l88 414h117l-88 -414h403l-25 -115h-403l-88 -411h-117l88 411h-403z" />
<glyph unicode="," horiz-adv-x="487" d="M-25 -231q113 67 140 180l12 51h-88l37 172h170l-39 -182q-41 -190 -197 -281z" />
<glyph unicode="-" horiz-adv-x="790" d="M125 518l25 115h509l-24 -115h-510z" />
<glyph unicode="." horiz-adv-x="487" d="M39 0l37 172h170l-37 -172h-170z" />
<glyph unicode="/" horiz-adv-x="727" d="M-78 -221l795 1683h106l-794 -1683h-107z" />
<glyph unicode="0" d="M111 492q0 68 8.5 144.5t29 164.5t51 170.5t78.5 159t107 133.5t140.5 91t176.5 34q108 0 187.5 -43t124 -118t65.5 -163t21 -191q0 -67 -8 -143t-28.5 -164t-50.5 -170.5t-77.5 -160t-106 -135t-140.5 -92t-177 -34.5q-87 0 -156.5 29t-114.5 77.5t-75 115.5t-42.5 140 t-12.5 155zM252 465q0 -66 11.5 -124.5t38.5 -115t81 -90t131 -33.5q76 0 141 34.5t109.5 89.5t80 129t56 149t34 153.5t18.5 137.5t5 106q0 67 -11.5 125t-39 114t-81.5 89t-130 33q-75 0 -139 -33.5t-108.5 -88t-80 -127.5t-57 -147.5t-35.5 -152.5t-19 -138.5t-5 -109.5z " />
<glyph unicode="1" d="M102 0l25 115h342l225 1067q-36 -26 -148.5 -61.5t-219.5 -49.5l-11 113q307 59 453 180h109l-267 -1249h324l-25 -115h-807z" />
<glyph unicode="2" d="M55 0l25 113q168 129 276 215t210.5 174t161 148.5t104.5 123.5t63.5 115.5t17.5 107.5q0 121 -77 188.5t-197 67.5q-95 0 -179 -47t-145 -141l-122 78q85 119 203 182.5t255 63.5q186 0 301 -107t115 -278q0 -100 -43.5 -193t-146.5 -200.5t-238 -215.5t-354 -264h704 l-28 -131h-906z" />
<glyph unicode="3" d="M33 270l129 72q54 -120 158 -178t223 -58q142 0 233.5 75t91.5 202q0 125 -89.5 193.5t-235.5 68.5h-86l26 129h170q119 0 196 62t77 176q0 63 -25 111.5t-67.5 76.5t-91.5 42.5t-103 14.5q-104 0 -191 -44t-135 -105l-98 98q69 75 177 129t249 54q193 0 312.5 -104.5 t119.5 -260.5q0 -119 -70.5 -205.5t-189.5 -124.5q79 -37 142 -120.5t63 -198.5q0 -174 -137.5 -287t-348.5 -113q-174 0 -305 80.5t-194 214.5z" />
<glyph unicode="4" d="M31 338l26 125q139 123 251.5 257t180.5 252t105.5 217.5t42.5 174.5h143q-2 -104 -74.5 -265.5t-202.5 -336.5t-278 -295h498l96 451h139l-96 -451h207l-29 -129h-204l-72 -338h-139l71 338h-665z" />
<glyph unicode="5" d="M43 291l133 55q38 -119 133.5 -179.5t212.5 -60.5q152 0 254.5 91t102.5 245q0 136 -83.5 219.5t-228.5 83.5q-179 0 -297 -127l-77 60l176 686h755l-26 -131h-631l-121 -447q45 38 115.5 62t150.5 24q185 0 300.5 -123.5t115.5 -302.5q0 -199 -143.5 -335t-366.5 -136 q-181 0 -306 90.5t-169 225.5z" />
<glyph unicode="6" d="M90 455q0 116 38.5 228.5t101.5 205.5t152.5 182t182 158.5t199.5 134.5h229q-88 -47 -187.5 -115t-199 -149t-180.5 -173.5t-117 -172.5q124 118 309 118q190 0 311.5 -121t121.5 -309q0 -200 -136.5 -333.5t-355.5 -133.5q-212 0 -340.5 129.5t-128.5 350.5zM238 420 q0 -143 86 -228.5t233 -85.5q163 0 254.5 99.5t91.5 245.5q0 137 -84 217t-231 80q-154 0 -252 -86t-98 -242z" />
<glyph unicode="7" d="M195 1233l28 131h953l-29 -129q-70 -64 -152 -157t-175 -221.5t-174 -264t-146.5 -292.5t-93.5 -300h-154q36 166 119 351t187.5 347.5t211.5 298.5t207 236h-782z" />
<glyph unicode="8" d="M70 375q0 146 89.5 248t235.5 135q-78 44 -124 116t-46 166q0 156 119.5 252.5t306.5 96.5q194 0 315 -103t121 -256q0 -115 -70 -198t-188 -119q79 -39 141 -126t62 -208q0 -82 -31.5 -154.5t-90.5 -128.5t-150.5 -88.5t-204.5 -32.5q-215 0 -350 109.5t-135 290.5z M221 387q0 -133 93.5 -204.5t242.5 -71.5q147 0 236.5 70.5t89.5 203.5q0 136 -93 207.5t-239 71.5q-149 0 -239.5 -73t-90.5 -204zM373 1030q0 -76 42.5 -130.5t107.5 -79.5t145 -25q120 0 196 58.5t76 166.5q0 80 -45 134.5t-109 76.5t-139 22q-121 0 -197.5 -58.5 t-76.5 -164.5z" />
<glyph unicode="9" d="M162 922q0 200 136 333.5t355 133.5q212 0 340.5 -129.5t128.5 -350.5q0 -116 -38.5 -228.5t-101 -205.5t-152 -182t-182 -158.5t-199.5 -134.5h-230q88 47 187.5 115t199 149t180.5 173.5t117 172.5q-124 -118 -309 -118q-190 0 -311 121t-121 309zM309 913 q0 -137 84.5 -217t231.5 -80q154 0 252 86t98 242q0 143 -86.5 228t-233.5 85q-163 0 -254.5 -99t-91.5 -245z" />
<glyph unicode=":" horiz-adv-x="602" d="M92 0l37 172h170l-37 -172h-170zM281 883l34 170h172l-36 -170h-170z" />
<glyph unicode=";" horiz-adv-x="602" d="M29 -231q112 66 139 180l12 51h-88l37 172h170l-39 -182q-41 -190 -197 -281zM281 883l34 170h172l-36 -170h-170z" />
<glyph unicode="&#x3c;" d="M250 631l643 540l74 -86l-561 -471l362 -471l-90 -69z" />
<glyph unicode="=" d="M76 371l24 116h924l-25 -116h-923zM158 760l24 114h924l-25 -114h-923z" />
<glyph unicode="&#x3e;" d="M221 160l561 471l-362 471l90 69l428 -557l-643 -540z" />
<glyph unicode="?" horiz-adv-x="1052" d="M223 1219q197 170 420 170q166 0 272.5 -97.5t106.5 -257.5q0 -188 -147 -318.5t-379 -137.5l-37 -183h-117l61 297q47 -6 76 -6q166 0 282 98.5t116 249.5q0 104 -62.5 163.5t-187.5 59.5q-164 0 -326 -131zM246 0l41 197h153l-43 -197h-151z" />
<glyph unicode="@" horiz-adv-x="1775" d="M129 537q0 169 64.5 325t175.5 272t271 185.5t341 69.5q158 0 291.5 -53.5t223.5 -144.5t140 -213t50 -259q0 -211 -109.5 -351.5t-276.5 -140.5q-75 0 -129.5 32.5t-68.5 102.5q-111 -141 -283 -141q-142 0 -221.5 97.5t-79.5 248.5q0 182 110.5 308t276.5 126 q169 0 260 -147l29 131h119l-113 -528q-6 -24 -6 -45q0 -84 104 -84q83 0 145 54.5t92 140.5t30 190q0 119 -42 222.5t-118 179t-186.5 118.5t-241.5 43q-125 0 -239.5 -39.5t-202 -109.5t-152.5 -162.5t-99 -202.5t-34 -225q0 -164 66.5 -294t198.5 -208t310 -78 q90 0 184 20.5t160 61.5l45 -98q-182 -97 -397 -97q-206 0 -363.5 91.5t-241 248.5t-83.5 353zM641 580q0 -107 52.5 -178.5t152.5 -71.5q62 0 115.5 29.5t88.5 77t54.5 106.5t19.5 119q0 103 -57 167t-160 64q-123 0 -194.5 -91.5t-71.5 -221.5z" />
<glyph unicode="A" horiz-adv-x="1316" d="M-92 0l844 1364h159l265 -1364h-146l-76 414h-635l-253 -414h-158zM399 545h531l-119 678z" />
<glyph unicode="B" horiz-adv-x="1349" d="M76 0l291 1364h483q193 0 302.5 -96.5t109.5 -239.5q0 -118 -73.5 -202.5t-189.5 -116.5q79 -35 139 -119.5t60 -196.5q0 -172 -137 -282.5t-348 -110.5h-637zM242 131h481q143 0 234.5 73.5t91.5 198.5q0 122 -90 189t-236 67h-369zM381 788h453q122 0 201 59t79 173 q0 105 -73 159t-193 54h-371z" />
<glyph unicode="C" horiz-adv-x="1353" d="M133 610q0 159 55 302t150.5 248t231.5 167t290 62q174 0 299.5 -76.5t198.5 -196.5l-121 -80q-54 105 -151 162t-232 57q-167 0 -299 -85.5t-203 -232t-71 -325.5q0 -229 115.5 -366t316.5 -137q126 0 227 53.5t170 146.5l107 -82q-199 -252 -506 -252q-174 0 -306 82 t-202 226t-70 327z" />
<glyph unicode="D" horiz-adv-x="1474" d="M76 0l291 1364h419q144 0 258.5 -46t187 -128t110.5 -189.5t38 -234.5q0 -157 -49.5 -295.5t-141 -243.5t-231 -166t-309.5 -61h-573zM244 131h420q133 0 241.5 49t179.5 134t109.5 199t38.5 245q0 224 -113 349.5t-338 125.5h-303z" />
<glyph unicode="E" horiz-adv-x="1257" d="M76 0l291 1364h940l-29 -131h-799l-96 -445h680l-27 -129h-680l-112 -528h800l-28 -131h-940z" />
<glyph unicode="F" horiz-adv-x="1216" d="M76 0l291 1364h938l-29 -131h-797l-94 -442h676l-27 -132h-678l-139 -659h-141z" />
<glyph unicode="G" horiz-adv-x="1484" d="M133 625q0 159 55.5 300.5t150.5 243t229 161t284 59.5q178 0 304 -74.5t204 -202.5l-123 -76q-54 103 -151.5 161t-231.5 58q-169 0 -300 -83t-202 -226.5t-71 -322.5q0 -232 119 -373t335 -141q108 0 199 37t152.5 100t100 141t50.5 164h-426l27 131h532q10 -27 10 -84 q0 -82 -26.5 -168t-81.5 -167.5t-131 -145.5t-183 -103t-229 -39q-140 0 -254 51.5t-188 140.5t-114 206.5t-40 251.5z" />
<glyph unicode="H" horiz-adv-x="1470" d="M76 0l291 1364h137l-123 -576h793l122 576h138l-289 -1364h-139l141 659h-793l-139 -659h-139z" />
<glyph unicode="I" horiz-adv-x="540" d="M76 0l291 1364h137l-289 -1364h-139z" />
<glyph unicode="J" horiz-adv-x="944" d="M-53 162l119 82q69 -135 227 -135q56 0 101 18.5t74.5 47t53 72t36.5 84t24 91.5l198 942h142l-205 -971q-88 -418 -432 -418q-120 0 -207 50t-131 137z" />
<glyph unicode="K" horiz-adv-x="1253" d="M76 0l291 1364h137l-164 -770l854 770h180l-651 -588l414 -776h-158l-363 686l-317 -287l-84 -399h-139z" />
<glyph unicode="L" horiz-adv-x="1130" d="M76 0l291 1364h137l-262 -1233h766l-29 -131h-903z" />
<glyph unicode="M" horiz-adv-x="1759" d="M76 0l291 1364h208l209 -1192l725 1192h213l-288 -1364h-138l260 1223l-737 -1223h-129l-217 1227l-262 -1227h-135z" />
<glyph unicode="N" horiz-adv-x="1470" d="M76 0l291 1364h165l519 -1174l249 1174h134l-289 -1364h-154l-528 1202l-254 -1202h-133z" />
<glyph unicode="O" horiz-adv-x="1531" d="M133 612q0 159 54 302t148 247.5t228 166t287 61.5q180 0 314.5 -83t204 -226.5t69.5 -327.5q0 -159 -54 -302t-148 -247.5t-228 -166t-287 -61.5q-180 0 -315 83.5t-204 227t-69 326.5zM283 608q0 -229 114.5 -364t323.5 -135q164 0 294 85.5t201.5 233.5t71.5 330 q0 228 -114.5 362.5t-323.5 134.5q-164 0 -294 -85t-201.5 -232.5t-71.5 -329.5z" />
<glyph unicode="P" horiz-adv-x="1275" d="M76 0l291 1364h485q211 0 322.5 -100t111.5 -273q0 -91 -31.5 -169t-93.5 -139t-162.5 -95.5t-230.5 -34.5h-436l-117 -553h-139zM358 682h430q177 0 263 85.5t86 221.5q0 117 -73.5 180.5t-227.5 63.5h-359z" />
<glyph unicode="Q" horiz-adv-x="1531" d="M133 612q0 159 54 302t148 247.5t228 166t287 61.5q180 0 314.5 -83t204 -226.5t69.5 -327.5q0 -196 -80 -364t-219 -273l118 -181l-104 -71l-123 184q-141 -72 -309 -72q-180 0 -315 83.5t-204 227t-69 326.5zM283 608q0 -229 114.5 -364t323.5 -135q125 0 233 51 l-125 190l107 72l127 -193q106 89 165.5 227t59.5 302q0 228 -114.5 362.5t-323.5 134.5q-164 0 -294 -85t-201.5 -232.5t-71.5 -329.5z" />
<glyph unicode="R" horiz-adv-x="1347" d="M76 0l291 1364h540q177 0 281 -98.5t104 -264.5q0 -149 -104 -260.5t-287 -144.5l254 -596h-149l-244 580h-424l-123 -580h-139zM367 713h432q153 0 248.5 80.5t95.5 203.5q0 109 -67 172.5t-191 63.5h-408z" />
<glyph unicode="S" horiz-adv-x="1171" d="M33 252l123 74q59 -112 168 -166t233 -54q147 0 241.5 71.5t94.5 191.5q0 41 -13 73.5t-36.5 57.5t-61.5 48.5t-84 45t-108 49.5q-13 5 -19 8q-55 25 -90 42.5t-81.5 44.5t-75 54.5t-55.5 62.5t-39.5 78.5t-12.5 94.5q0 111 63 194.5t164 125t222 41.5q151 0 267 -65.5 t189 -176.5l-114 -84q-53 92 -142.5 143t-210.5 51q-129 0 -214 -56.5t-85 -160.5q0 -46 17.5 -82t59 -67.5t82.5 -53t116 -55.5q175 -78 241 -123q136 -92 159 -227q5 -31 5 -65q0 -164 -139 -278t-354 -114q-174 0 -309 77t-201 200z" />
<glyph unicode="T" horiz-adv-x="1169" d="M178 1233l29 131h1077l-27 -131h-471l-262 -1233h-139l262 1233h-469z" />
<glyph unicode="U" horiz-adv-x="1439" d="M156 391q0 66 20 156l174 817h139l-178 -838q-16 -75 -16 -116q0 -137 90 -219t246 -82q183 0 305.5 103t163.5 296l182 856h139l-186 -877q-51 -240 -212 -376t-402 -136q-202 0 -333.5 116.5t-131.5 299.5z" />
<glyph unicode="V" horiz-adv-x="1232" d="M184 1364h144l180 -1217l704 1217h150l-799 -1364h-160z" />
<glyph unicode="W" horiz-adv-x="1902" d="M238 1364h133l59 -1219l604 1219h156l86 -1221l569 1221h152l-662 -1364h-168l-84 1204l-596 -1204h-172z" />
<glyph unicode="X" horiz-adv-x="1253" d="M-109 0l676 721l-350 643h164l291 -545l510 545h186l-633 -659l381 -705h-158l-321 602l-563 -602h-183z" />
<glyph unicode="Y" d="M162 1364h153l279 -666l557 666h172l-682 -805l-119 -559h-143l119 561z" />
<glyph unicode="Z" horiz-adv-x="1181" d="M-41 0l29 131l1040 1102h-774l27 131h958l-29 -133l-1042 -1100h825l-28 -131h-1006z" />
<glyph unicode="[" horiz-adv-x="598" d="M6 -221l359 1683h387l-25 -119h-266l-307 -1445h266l-27 -119h-387z" />
<glyph unicode="\" horiz-adv-x="729" d="M274 1462h97l90 -1683h-96z" />
<glyph unicode="]" horiz-adv-x="595" d="M-143 -221l24 119h269l307 1445h-269l27 119h389l-358 -1683h-389z" />
<glyph unicode="^" d="M137 903l549 461h121l364 -475l-90 -74l-340 451l-532 -451z" />
<glyph unicode="_" horiz-adv-x="1234" d="M-162 -256l23 102h1198l-23 -102h-1198z" />
<glyph unicode="`" horiz-adv-x="638" d="M252 1462l141 23q30 -52 82.5 -120t102.5 -118l-56 -59q-87 53 -164 131t-106 143z" />
<glyph unicode="a" horiz-adv-x="1153" d="M33 274q0 74 27 132t66 91.5t96.5 57t102.5 33t101 16.5q22 3 63.5 7t66.5 7t63 8.5t62.5 12.5t54.5 16.5t48 23t35 31t25 40.5t8 51q0 45 -20.5 77t-56 48.5t-74 24t-83.5 7.5q-205 0 -356 -120l-67 96q196 145 428 145q161 0 260.5 -70t99.5 -198q0 -44 -12 -94 l-105 -481q-10 -50 -10 -68q0 -70 82 -70q44 0 86 27l29 -115q-51 -28 -133 -28t-133.5 40t-51.5 113q0 17 2 27q-141 -187 -370 -187q-156 0 -245 79t-89 220zM166 283q0 -97 60 -142t159 -45q140 0 250.5 86.5t148.5 257.5l37 170q-26 -23 -58 -40.5t-58 -28t-67.5 -19 t-63.5 -11.5t-71 -9t-67 -8q-135 -19 -202.5 -64.5t-67.5 -146.5z" />
<glyph unicode="b" horiz-adv-x="1275" d="M49 0l309 1462h127l-120 -567q151 184 366 184q193 0 310.5 -137t117.5 -352q0 -165 -70 -305.5t-195.5 -225t-277.5 -84.5q-126 0 -230 62.5t-161 195.5l-49 -233h-127zM279 455q0 -158 84 -257.5t241 -99.5q128 0 225 70t145 180t48 240q0 104 -31.5 185t-103.5 132 t-176 51q-98 0 -181 -44t-137 -115.5t-84 -160.5t-30 -181z" />
<glyph unicode="c" horiz-adv-x="1083" d="M90 463q0 166 72.5 307t202 225t286.5 84q130 0 229.5 -59t155.5 -162l-112 -74q-91 172 -277 172q-126 0 -223.5 -68t-148 -178t-50.5 -239q0 -164 83 -269.5t235 -105.5q175 0 305 168l90 -84q-164 -205 -403 -205q-205 0 -325 137t-120 351z" />
<glyph unicode="d" horiz-adv-x="1277" d="M92 465q0 165 70 305.5t195.5 224.5t277.5 84q126 0 230 -62.5t161 -195.5l135 641h127l-309 -1462h-127l35 160q-152 -185 -367 -185q-193 0 -310.5 137.5t-117.5 352.5zM229 467q0 -77 18.5 -142.5t55.5 -117t98 -80.5t140 -29q98 0 181 44t137 115.5t84 161t30 181.5 q0 157 -84.5 256.5t-241.5 99.5q-128 0 -225 -69.5t-145 -179.5t-48 -240z" />
<glyph unicode="e" horiz-adv-x="1177" d="M88 469q0 119 41 230t112 195t175 134.5t223 50.5q102 0 186.5 -36.5t139.5 -98.5t85.5 -142.5t30.5 -170.5q0 -77 -18 -133h-836q-2 -18 -2 -52q0 -154 97.5 -250t255.5 -96q191 0 313 144l88 -88q-172 -181 -408 -181q-221 0 -352 137t-131 357zM246 608h700q2 12 2 29 q0 147 -86.5 233t-224.5 86q-148 0 -254 -97t-137 -251z" />
<glyph unicode="f" horiz-adv-x="673" d="M106 0l199 938h-182l24 117h183l39 178q55 252 299 252q100 0 180 -43l-51 -111q-58 39 -142 39q-129 0 -163 -158l-33 -157h252l-25 -117h-254l-199 -938h-127z" />
<glyph unicode="g" horiz-adv-x="1273" d="M4 -215l96 102q57 -60 151.5 -100.5t203.5 -40.5q162 0 274 100.5t150 288.5l16 82q-67 -84 -163 -127t-200 -43q-196 0 -317 126.5t-121 324.5q0 121 43.5 229.5t117.5 185t175.5 121.5t212.5 45q123 0 225.5 -60.5t157.5 -178.5l47 215h125l-197 -928 q-26 -122 -66 -207.5t-108 -150.5q-152 -146 -395 -146q-253 0 -428 162zM229 512q0 -150 81.5 -247t236.5 -97q128 0 227.5 66t150 170t50.5 225q0 140 -85.5 231.5t-244.5 91.5q-100 0 -181 -37.5t-131 -100t-77 -140.5t-27 -162z" />
<glyph unicode="h" horiz-adv-x="1200" d="M49 0l309 1462h127l-123 -579q164 196 388 196q151 0 234 -87.5t83 -225.5q0 -47 -14 -115l-142 -651h-127l138 641q14 65 14 107q0 99 -56.5 153.5t-162.5 54.5q-148 0 -266.5 -107t-153.5 -271l-121 -578h-127z" />
<glyph unicode="i" horiz-adv-x="475" d="M49 0l223 1055h127l-223 -1055h-127zM324 1298l34 164h127l-34 -164h-127z" />
<glyph unicode="j" horiz-adv-x="477" d="M-340 -291l84 86q48 -59 121 -59t112.5 55.5t61.5 161.5l235 1102h127l-243 -1143q-60 -287 -293 -287q-128 0 -205 84zM326 1298l34 164h127l-34 -164h-127z" />
<glyph unicode="k" horiz-adv-x="1093" d="M49 0l311 1462h125l-206 -979l677 572h181l-539 -451l373 -604h-152l-323 526l-254 -213l-66 -313h-127z" />
<glyph unicode="l" horiz-adv-x="468" d="M47 0l309 1462h127l-309 -1462h-127z" />
<glyph unicode="m" horiz-adv-x="1857" d="M49 0l223 1055h127l-37 -172q151 196 359 196q115 0 191 -59.5t102 -159.5q171 219 405 219q142 0 223.5 -87.5t81.5 -225.5q0 -47 -14 -115l-141 -651h-127l137 641q14 65 14 107q0 99 -55.5 153.5t-157.5 54.5q-136 0 -244.5 -107t-140.5 -271l-121 -578h-131l138 641 q14 65 14 107q0 99 -55.5 153.5t-157.5 54.5q-136 0 -244.5 -107t-140.5 -271l-121 -578h-127z" />
<glyph unicode="n" horiz-adv-x="1200" d="M49 0l223 1055h127l-37 -172q164 196 388 196q151 0 234 -87.5t83 -225.5q0 -47 -14 -115l-142 -651h-127l138 641q14 65 14 107q0 99 -56.5 153.5t-162.5 54.5q-148 0 -266.5 -107t-153.5 -271l-121 -578h-127z" />
<glyph unicode="o" horiz-adv-x="1212" d="M92 469q0 165 68.5 304t195 222.5t285.5 83.5q212 0 332.5 -137t120.5 -356q0 -124 -40.5 -235.5t-111 -194.5t-173.5 -132t-222 -49q-212 0 -333.5 137.5t-121.5 356.5zM227 469q0 -162 83.5 -267.5t234.5 -105.5q120 0 216 69t146.5 181t50.5 242q0 162 -82 265 t-233 103q-121 0 -217.5 -68t-147.5 -179t-51 -240z" />
<glyph unicode="p" horiz-adv-x="1275" d="M-27 -356l299 1411h127l-34 -160q151 184 366 184q193 0 310.5 -137t117.5 -352q0 -165 -70 -305.5t-195.5 -225t-277.5 -84.5q-126 0 -230 62.5t-161 195.5l-125 -589h-127zM279 455q0 -158 84 -257.5t241 -99.5q128 0 225 70t145 180t48 240q0 104 -31.5 185 t-103.5 132t-176 51q-98 0 -181 -44t-137 -115.5t-84 -160.5t-30 -181z" />
<glyph unicode="q" horiz-adv-x="1277" d="M92 465q0 165 70 305.5t195.5 224.5t277.5 84q126 0 230 -62.5t161 -195.5l49 234h127l-299 -1411h-127l111 516q-152 -185 -367 -185q-193 0 -310.5 137.5t-117.5 352.5zM229 467q0 -77 18.5 -142.5t55.5 -117t98 -80.5t140 -29q98 0 181 44t137 115.5t84 161t30 181.5 q0 157 -84.5 256.5t-241.5 99.5q-128 0 -225 -69.5t-145 -179.5t-48 -240z" />
<glyph unicode="r" horiz-adv-x="784" d="M49 0l223 1055h127l-37 -172q150 190 326 190q94 0 158 -41l-66 -110q-52 30 -114 30q-117 0 -225 -103.5t-146 -283.5l-121 -565h-125z" />
<glyph unicode="s" horiz-adv-x="1015" d="M6 188l113 70q116 -162 332 -162q124 0 203 50.5t79 138.5q0 48 -33 83t-69 52t-136 56q-21 9 -32 13q-70 26 -116 49.5t-90.5 58t-66.5 81.5t-22 108q0 58 21 107t57.5 83t85 57.5t103 34.5t112.5 11q126 0 229 -48t170 -118l-96 -86q-128 131 -309 131 q-101 0 -174.5 -38.5t-73.5 -116.5q0 -31 14 -57.5t32.5 -44t55.5 -37t62 -30t73 -28.5q145 -55 201 -90q131 -83 131 -221q0 -135 -111 -227.5t-302 -92.5q-147 0 -262 56.5t-181 156.5z" />
<glyph unicode="t" horiz-adv-x="768" d="M111 938l24 117h182l68 309h125l-66 -309h351l-25 -117h-350l-133 -633q-13 -72 -13 -86q0 -60 38 -92.5t106 -32.5q46 0 90.5 16t73.5 40l59 -99q-50 -36 -113 -56t-120 -20q-119 0 -192 56.5t-73 161.5q0 34 17 112l133 633h-182z" />
<glyph unicode="u" horiz-adv-x="1200" d="M106 289q0 41 15 114l141 652h127l-137 -641q-14 -65 -14 -107q0 -99 56.5 -154t162.5 -55q148 0 266.5 107.5t153.5 271.5l120 578h127l-223 -1055h-127l37 172q-165 -197 -387 -197q-151 0 -234.5 88t-83.5 226z" />
<glyph unicode="v" horiz-adv-x="1038" d="M127 1055h131l154 -908l536 908h148l-639 -1055h-140z" />
<glyph unicode="w" horiz-adv-x="1562" d="M170 1055h121l39 -922l477 922h133l86 -922l430 922h135l-510 -1055h-147l-86 899l-469 -899h-148z" />
<glyph unicode="x" horiz-adv-x="1040" d="M-88 0l530 555l-270 500h147l213 -410l373 410h162l-481 -508l291 -547h-146l-233 453l-422 -453h-164z" />
<glyph unicode="y" horiz-adv-x="1036" d="M-139 -319l78 100q51 -41 112 -41q73 0 128.5 50t109.5 140l49 82l-215 1043h135l178 -883l510 883h146l-652 -1108q-48 -86 -85.5 -140t-83.5 -99t-98.5 -65t-117.5 -20q-124 0 -194 58z" />
<glyph unicode="z" horiz-adv-x="999" d="M-39 0l25 115l819 823h-619l25 117h778l-26 -121l-809 -819h655l-25 -115h-823z" />
<glyph unicode="{" horiz-adv-x="694" d="M33 563l24 117h78q90 0 139 56t72 165l53 254q34 162 134 242t253 80h72l-24 -119h-68q-106 0 -164 -54t-82 -165l-55 -267q-44 -206 -217 -254q50 -23 81 -71t31 -117q0 -36 -10 -94l-49 -234q-12 -58 -12 -90q0 -61 40 -95t122 -34h69l-26 -119h-52q-130 0 -203 66 t-73 176q0 46 14 111l45 223q13 67 13 94q0 60 -36 94.5t-110 34.5h-59z" />
<glyph unicode="|" horiz-adv-x="450" d="M4 -221l361 1683h94l-361 -1683h-94z" />
<glyph unicode="}" horiz-adv-x="686" d="M-156 -236l25 119h68q106 0 163.5 54t81.5 165l56 267q44 206 217 254q-50 23 -81.5 71t-31.5 117q0 36 10 94l49 234q13 63 13 90q0 61 -40 95t-122 34h-70l27 119h51q130 0 203.5 -66t73.5 -176q0 -42 -15 -111l-45 -223q-12 -62 -12 -94q0 -60 35.5 -93.5t109.5 -33.5 h60l-25 -117h-78q-90 0 -139 -57t-72 -166l-53 -254q-34 -162 -134 -242t-253 -80h-72z" />
<glyph unicode="~" horiz-adv-x="1210" d="M123 565q79 103 158.5 155t173.5 52q70 0 151 -53l80 -51q63 -41 111 -41q126 0 243 149l70 -67q-79 -103 -158.5 -155t-173.5 -52q-70 0 -151 53l-80 51q-63 41 -111 41q-126 0 -243 -149z" />
<glyph unicode="&#xa1;" horiz-adv-x="518" d="M-10 -309l61 286l197 682h61l-104 -682l-64 -286h-151zM238 858l43 197h151l-41 -197h-153z" />
<glyph unicode="&#xa2;" d="M119 463q0 166 72.5 307t202 225t286.5 84l35 166h104l-39 -176q95 -20 168 -75t117 -136l-113 -74q-72 134 -196 164l-181 -852q172 0 302 168l90 -84q-164 -205 -404 -205h-14l-35 -168h-104l36 181q-153 36 -240 165t-87 310zM254 471q0 -134 56.5 -231.5 t162.5 -130.5l180 847q-120 -6 -212.5 -75.5t-139.5 -177t-47 -232.5z" />
<glyph unicode="&#xa3;" d="M23 70q280 175 280 379q0 63 -14 135h-211l22 108h162q-41 168 -41 260q0 194 132 315.5t331 121.5q264 0 438 -232l-116 -88q-56 84 -140 135t-194 51q-136 0 -224 -80t-88 -229q0 -82 43 -254h431l-23 -108h-385q12 -74 12 -117q0 -94 -48 -179.5t-136 -148.5 q83 39 190 39q64 0 173 -36t151 -36q54 0 89.5 35t57.5 121l127 -49q-75 -238 -272 -238q-66 0 -190.5 42t-204.5 42q-139 0 -301 -84z" />
<glyph unicode="&#xa4;" d="M80 266l178 150q-41 74 -41 174q0 159 111 276l-95 123l91 70l92 -121q99 57 209 57q136 0 229 -80l176 148l74 -86l-178 -150q41 -77 41 -174q0 -162 -115 -280l96 -123l-90 -70l-94 123q-93 -55 -205 -55q-140 0 -231 78l-174 -146zM324 590q0 -102 63.5 -169 t171.5 -67q129 0 215 87t86 212q0 102 -63.5 169t-171.5 67q-129 0 -215 -87t-86 -212z" />
<glyph unicode="&#xa5;" d="M90 326l21 98h366l29 135l-23 51h-331l20 99h283l-217 655h153l205 -682l489 682h172l-499 -655h280l-20 -99h-334l-41 -51l-29 -135h365l-21 -98h-364l-70 -326h-137l68 326h-365z" />
<glyph unicode="&#xa6;" horiz-adv-x="460" d="M10 -221l135 639h99l-135 -639h-99zM231 823l138 639h96l-135 -639h-99z" />
<glyph unicode="&#xa7;" horiz-adv-x="1120" d="M-6 -100l80 94q77 -72 153.5 -105.5t167.5 -33.5q109 0 193 44t135 121l-123 103q-426 350 -426 713q0 152 66 278t191 201.5t286 75.5q235 0 393 -164l-80 -94q-77 72 -153.5 105.5t-167.5 33.5q-218 0 -330 -168l125 -100q426 -350 426 -713q0 -152 -66 -278 t-191 -201.5t-286 -75.5q-235 0 -393 164zM305 834q0 -59 12.5 -117t30.5 -104t52 -97.5t61.5 -87t75 -84t77 -76t82.5 -75.5l76 -70q27 89 27 170q0 59 -12.5 117t-30.5 104t-52 97.5t-61.5 87t-75 84t-77 76t-82.5 75.5l-76 67q-27 -77 -27 -167z" />
<glyph unicode="&#xa8;" horiz-adv-x="641" d="M193 1229l30 135h129l-30 -135h-129zM600 1229l31 135h129l-31 -135h-129z" />
<glyph unicode="&#xa9;" horiz-adv-x="1685" d="M143 682q0 146 57.5 279.5t154 229.5t230 153t279.5 57q117 0 226.5 -36.5t198 -103t155 -154.5t103 -198t36.5 -227q0 -116 -36.5 -226t-103 -198.5t-155 -155t-198.5 -103t-226 -36.5q-146 0 -279.5 57t-230 153.5t-154 230t-57.5 278.5zM240 682q0 -127 49 -242 t132.5 -198.5t199.5 -133t243 -49.5q169 0 312 83.5t226 227t83 312.5q0 170 -83.5 314t-226.5 227.5t-311 83.5q-127 0 -242.5 -49.5t-199 -133t-133 -199.5t-49.5 -243zM461 682q0 167 118 285t285 118q106 0 196.5 -50.5t143.5 -137.5l-82 -55q-40 67 -108.5 106 t-149.5 39q-126 0 -215.5 -89.5t-89.5 -215.5q0 -125 89.5 -214t215.5 -89q80 0 149 39.5t111 105.5l82 -53q-53 -87 -144 -138.5t-198 -51.5q-167 0 -285 117.5t-118 283.5z" />
<glyph unicode="&#xaa;" horiz-adv-x="892" d="M166 872q0 48 17.5 84.5t42 57.5t62 36t66.5 21t66 10q12 1 39.5 4t41 5t37.5 5.5t37 7t31.5 9.5t28.5 13.5t20 18t14.5 23.5t4.5 29q0 92 -139 92q-127 0 -222 -74l-47 76q128 90 275 90q105 0 169.5 -43.5t67.5 -124.5q0 -32 -16 -110l-53 -246q-1 -3 -4 -19.5 t-3 -23.5q0 -43 48 -43q29 0 51 16l18 -81q-31 -21 -88 -21q-53 0 -86 24.5t-33 67.5q0 11 2 19q-89 -115 -235 -115q-99 0 -156 50.5t-57 141.5zM272 879q0 -56 36 -82.5t93 -26.5q82 0 146 51t86 150l22 100q-34 -30 -88 -45.5t-102.5 -20.5t-93.5 -13.5t-72 -35.5 t-27 -77z" />
<glyph unicode="&#xab;" horiz-adv-x="935" d="M80 508l8 41l311 383l82 -78l-286 -340l184 -332l-105 -57zM434 508l8 41l357 383l78 -84l-328 -334l184 -332l-104 -57z" />
<glyph unicode="&#xac;" horiz-adv-x="1216" d="M139 565l25 115h923l-112 -526h-115l88 411h-809z" />
<glyph unicode="&#xad;" horiz-adv-x="790" d="M125 518l25 115h509l-24 -115h-510z" />
<glyph unicode="&#xae;" horiz-adv-x="1005" d="M207 1010q0 157 111 268t268 111t268 -111t111 -268t-111 -268t-268 -111t-268 111t-111 268zM256 1010q0 -136 97 -233t233 -97t232.5 96.5t96.5 233.5q0 136 -96.5 232.5t-232.5 96.5q-137 0 -233.5 -96.5t-96.5 -232.5zM440 815v393h174q54 0 90.5 -33.5t36.5 -87.5 q0 -39 -22.5 -69.5t-59.5 -42.5l97 -160h-68l-88 152h-102v-152h-58zM498 1020h120q26 0 45 19t19 48t-19.5 48.5t-44.5 19.5h-120v-135z" />
<glyph unicode="&#xaf;" horiz-adv-x="638" d="M180 1262l23 102h579l-22 -102h-580z" />
<glyph unicode="&#xb0;" horiz-adv-x="804" d="M201 1087q0 125 88.5 213.5t212.5 88.5q123 0 211 -89t88 -213q0 -123 -88 -211t-211 -88q-124 0 -212.5 88t-88.5 211zM297 1087q0 -82 61 -142t144 -60t143 60t60 142q0 83 -60 144t-143 61t-144 -61t-61 -144z" />
<glyph unicode="&#xb1;" d="M8 0l25 115h923l-24 -115h-924zM152 686l24 115h404l88 416h116l-88 -416h404l-25 -115h-403l-88 -414h-117l88 414h-403z" />
<glyph unicode="&#xb2;" horiz-adv-x="743" d="M131 694l19 82q127 96 202.5 156.5t143.5 120t101.5 101.5t52 82.5t18.5 80.5q0 72 -46.5 112.5t-117.5 40.5q-123 0 -199 -118l-88 55q115 162 297 162q120 0 194 -68.5t74 -177.5q0 -120 -106 -234t-367 -296h426l-22 -99h-582z" />
<glyph unicode="&#xb3;" horiz-adv-x="770" d="M129 868l96 52q32 -72 94.5 -108t135.5 -36q86 0 140 44t54 118q0 75 -52.5 115.5t-139.5 40.5h-56l19 92h106q70 0 116 37t46 104q0 71 -51 108.5t-121 37.5q-62 0 -114.5 -27.5t-84.5 -65.5l-73 68q108 121 276 121q123 0 201 -66t78 -166q0 -74 -45.5 -127.5 t-120.5 -76.5q50 -26 88.5 -78.5t38.5 -122.5q0 -110 -87 -182t-222 -72q-113 0 -197 51.5t-125 138.5z" />
<glyph unicode="&#xb4;" horiz-adv-x="638" d="M379 1247q123 112 219 238l129 -58q-36 -63 -122.5 -131t-182.5 -110z" />
<glyph unicode="&#xb5;" d="M-59 -356l299 1411h127l-138 -641q-14 -65 -14 -111q0 -96 56 -150.5t155 -54.5q143 0 253 107t144 272l121 578h127l-176 -819q-10 -50 -10 -68q0 -34 20.5 -52t57.5 -18q39 0 69 27l4 -125q-45 -18 -94 -18q-78 0 -128 40t-50 113q0 17 2 27q-160 -187 -354 -187 q-164 0 -246 129l-98 -460h-127z" />
<glyph unicode="&#xb6;" horiz-adv-x="1171" d="M176 915q0 197 133 323t326 126h504l-330 -1550h-98l311 1466h-135l-312 -1466h-100l158 737h-98q-150 0 -254.5 101t-104.5 263z" />
<glyph unicode="&#xb7;" horiz-adv-x="520" d="M160 625q0 43 30.5 73.5t73.5 30.5t74 -30.5t31 -73.5t-31 -74t-74 -31t-73.5 31t-30.5 74z" />
<glyph unicode="&#xb8;" horiz-adv-x="638" d="M-131 -217l59 53q24 -30 64.5 -51t77.5 -21q45 0 72.5 29.5t27.5 73.5q0 39 -22 89t-58 87h60q56 -43 91 -98t35 -115q0 -75 -54.5 -119.5t-131.5 -44.5q-64 0 -122.5 31.5t-98.5 85.5z" />
<glyph unicode="&#xb9;" horiz-adv-x="632" d="M113 694l18 88h213l135 641q-26 -15 -94.5 -36t-132.5 -29l-8 82q194 36 291 114h81l-165 -772h202l-20 -88h-520z" />
<glyph unicode="&#xba;" horiz-adv-x="851" d="M188 997q0 160 100 271.5t255 111.5q137 0 216 -87t79 -228q0 -161 -99.5 -273t-253.5 -112q-137 0 -217 88t-80 229zM297 995q0 -97 49 -159t139 -62q107 0 175.5 87.5t68.5 205.5q0 97 -48 158t-138 61q-109 0 -177.5 -86t-68.5 -205z" />
<glyph unicode="&#xbb;" horiz-adv-x="935" d="M35 209l327 334l-184 331l105 58l194 -383l-8 -41l-356 -383zM430 203l287 340l-185 331l105 58l194 -383l-8 -41l-311 -383z" />
<glyph unicode="&#xbc;" horiz-adv-x="1888" d="M147 504l19 88h213l135 641q-27 -16 -95.5 -37t-131.5 -29l-8 82q191 35 290 115h82l-166 -772h203l-20 -88h-521zM324 0l1165 1364h108l-1165 -1364h-108zM1049 207l18 90q162 146 253.5 302.5t98.5 260.5h109q-2 -103 -102 -274.5t-236 -284.5h295l61 279h103l-60 -279 h127l-20 -94h-127l-43 -207h-107l45 207h-415z" />
<glyph unicode="&#xbd;" horiz-adv-x="1888" d="M137 504l19 88h213l135 641q-27 -16 -95.5 -37t-132.5 -29l-8 82q193 35 291 115h82l-166 -772h203l-21 -88h-520zM313 0l1166 1364h108l-1165 -1364h-109zM1069 0l18 82q307 233 413 339.5t106 201.5q0 72 -46.5 112.5t-117.5 40.5q-122 0 -199 -119l-88 56 q115 161 297 161q120 0 194 -68t74 -177q0 -123 -109 -242.5t-364 -288.5h426l-22 -98h-582z" />
<glyph unicode="&#xbe;" horiz-adv-x="1888" d="M141 678l97 51q32 -72 94 -107.5t135 -35.5q86 0 140.5 44t54.5 118q0 75 -53 115t-140 40h-55l18 92h107q70 0 115.5 37.5t45.5 104.5q0 71 -51 108t-121 37q-63 0 -115 -27t-83 -65l-74 67q108 121 276 121q123 0 201 -66t78 -165q0 -74 -46 -128t-120 -77 q50 -26 88.5 -78.5t38.5 -122.5q0 -110 -87 -182t-222 -72q-113 0 -197 52t-125 139zM338 0l1165 1364h109l-1166 -1364h-108zM1063 207l18 90q162 146 254 303t99 260h108q-2 -103 -102 -274.5t-236 -284.5h295l62 279h102l-59 -279h127l-21 -94h-127l-43 -207h-106l45 207 h-416z" />
<glyph unicode="&#xbf;" horiz-adv-x="1056" d="M41 16q0 188 147 319t379 138l37 182h117l-62 -297q-54 7 -75 7q-166 0 -282 -99t-116 -250q0 -104 62.5 -163.5t187.5 -59.5q164 0 326 131l78 -92q-197 -170 -420 -170q-166 0 -272.5 97.5t-106.5 256.5zM623 858l41 197h153l-43 -197h-151z" />
<glyph unicode="&#xc0;" horiz-adv-x="1316" d="M-92 0l844 1364h159l265 -1364h-146l-76 414h-635l-253 -414h-158zM399 545h531l-119 678zM616 1720l142 23q30 -53 82 -120.5t102 -117.5l-55 -59q-87 53 -164.5 131t-106.5 143z" />
<glyph unicode="&#xc1;" horiz-adv-x="1316" d="M-92 0l844 1364h159l265 -1364h-146l-76 414h-635l-253 -414h-158zM399 545h531l-119 678zM774 1505q123 112 219 238l129 -57q-36 -64 -123 -132t-182 -110z" />
<glyph unicode="&#xc2;" horiz-adv-x="1316" d="M-92 0l844 1364h159l265 -1364h-146l-76 414h-635l-253 -414h-158zM399 545h531l-119 678zM539 1534q153 91 299 209h110q36 -51 96.5 -114t116.5 -101l-51 -70q-69 29 -132 76.5t-101 91.5q-42 -42 -127.5 -91t-171.5 -77z" />
<glyph unicode="&#xc3;" horiz-adv-x="1316" d="M-92 0l844 1364h159l265 -1364h-146l-76 414h-635l-253 -414h-158zM399 545h531l-119 678zM551 1530q36 74 86.5 116t107.5 42q40 0 138 -38t137 -38q70 0 129 76l55 -43q-36 -74 -86.5 -116t-107.5 -42q-40 0 -138 38t-137 38q-70 0 -129 -76z" />
<glyph unicode="&#xc4;" horiz-adv-x="1316" d="M-92 0l844 1364h159l265 -1364h-146l-76 414h-635l-253 -414h-158zM399 545h531l-119 678zM582 1487l30 135h129l-30 -135h-129zM989 1487l31 135h129l-31 -135h-129z" />
<glyph unicode="&#xc5;" horiz-adv-x="1306" d="M-96 0l815 1319q-82 65 -82 166q0 85 60 146t145 61q84 0 143 -61t59 -146q0 -64 -34 -114.5t-90 -74.5l251 -1296h-145l-76 414h-635l-254 -414h-157zM395 545h531l-119 678zM721 1485q0 -51 35 -86t86 -35q50 0 84.5 35t34.5 86t-35 87t-84 36q-51 0 -86 -36t-35 -87z " />
<glyph unicode="&#xc6;" horiz-adv-x="1779" d="M-137 0l981 1364h987l-29 -131h-669l-95 -445h551l-26 -129h-553l-113 -528h672l-29 -131h-813l88 414h-493l-297 -414h-162zM416 545h428l145 688h-80z" />
<glyph unicode="&#xc7;" horiz-adv-x="1357" d="M137 610q0 159 55 302t150.5 248t231.5 167t290 62q174 0 299.5 -76.5t198.5 -196.5l-121 -80q-54 105 -151 162t-232 57q-167 0 -299 -85.5t-203 -232t-71 -325.5q0 -229 115.5 -366t316.5 -137q126 0 227 53.5t170 146.5l107 -82q-199 -252 -506 -252q-11 0 -74 5 q61 -71 61 -150q0 -75 -54.5 -119.5t-131.5 -44.5q-64 0 -122.5 31.5t-98.5 85.5l59 53q24 -30 64.5 -51t77.5 -21q45 0 72.5 29.5t27.5 73.5q0 61 -43 129q-194 52 -305 217.5t-111 396.5z" />
<glyph unicode="&#xc8;" horiz-adv-x="1257" d="M76 0l291 1364h940l-29 -131h-799l-96 -445h680l-27 -129h-680l-112 -528h800l-28 -131h-940zM608 1720l142 23q30 -53 82 -120.5t102 -117.5l-55 -59q-87 53 -164.5 131t-106.5 143z" />
<glyph unicode="&#xc9;" horiz-adv-x="1257" d="M76 0l291 1364h940l-29 -131h-799l-96 -445h680l-27 -129h-680l-112 -528h800l-28 -131h-940zM762 1505q123 112 219 238l129 -57q-36 -64 -123 -132t-182 -110z" />
<glyph unicode="&#xca;" horiz-adv-x="1257" d="M76 0l291 1364h940l-29 -131h-799l-96 -445h680l-27 -129h-680l-112 -528h800l-28 -131h-940zM561 1534q153 91 299 209h111q36 -51 96.5 -114t116.5 -101l-51 -70q-69 29 -133 76.5t-101 91.5q-42 -42 -127.5 -91t-171.5 -77z" />
<glyph unicode="&#xcb;" horiz-adv-x="1257" d="M76 0l291 1364h940l-29 -131h-799l-96 -445h680l-27 -129h-680l-112 -528h800l-28 -131h-940zM592 1487l31 135h129l-31 -135h-129zM999 1487l31 135h129l-31 -135h-129z" />
<glyph unicode="&#xcc;" horiz-adv-x="540" d="M76 0l291 1364h137l-289 -1364h-139zM211 1720l141 23q30 -52 82.5 -120t102.5 -118l-56 -59q-87 53 -164 131t-106 143z" />
<glyph unicode="&#xcd;" horiz-adv-x="540" d="M76 0l291 1364h137l-289 -1364h-139zM397 1505q123 112 219 238l129 -57q-36 -64 -123 -132t-182 -110z" />
<glyph unicode="&#xce;" horiz-adv-x="540" d="M76 0l291 1364h137l-289 -1364h-139zM143 1534q153 91 299 209h111q36 -51 96.5 -114t116.5 -101l-51 -70q-69 29 -133 76.5t-101 91.5q-42 -42 -127.5 -91t-171.5 -77z" />
<glyph unicode="&#xcf;" horiz-adv-x="540" d="M76 0l291 1364h137l-289 -1364h-139zM193 1487l30 135h129l-30 -135h-129zM600 1487l31 135h129l-31 -135h-129z" />
<glyph unicode="&#xd0;" horiz-adv-x="1476" d="M-12 647l24 117h228l129 600h419q144 0 258.5 -46t187 -128t110.5 -189.5t38 -234.5q0 -157 -49.5 -295.5t-141 -243.5t-231 -166t-309.5 -61h-573l137 647h-227zM246 131h420q133 0 241.5 49t179.5 134t109.5 199t38.5 245q0 224 -113 349.5t-338 125.5h-303l-100 -469 h391l-24 -117h-392z" />
<glyph unicode="&#xd1;" horiz-adv-x="1470" d="M76 0l291 1364h165l519 -1174l249 1174h134l-289 -1364h-154l-528 1202l-254 -1202h-133zM629 1530q36 74 86.5 116t107.5 42q40 0 138 -38t137 -38q70 0 129 76l55 -43q-36 -74 -87 -116t-108 -42q-40 0 -137.5 38t-136.5 38q-70 0 -129 -76z" />
<glyph unicode="&#xd2;" horiz-adv-x="1531" d="M133 612q0 159 54 302t148 247.5t228 166t287 61.5q180 0 314.5 -83t204 -226.5t69.5 -327.5q0 -159 -54 -302t-148 -247.5t-228 -166t-287 -61.5q-180 0 -315 83.5t-204 227t-69 326.5zM283 608q0 -229 114.5 -364t323.5 -135q164 0 294 85.5t201.5 233.5t71.5 330 q0 228 -114.5 362.5t-323.5 134.5q-164 0 -294 -85t-201.5 -232.5t-71.5 -329.5zM631 1720l141 23q30 -53 82 -120.5t102 -117.5l-55 -59q-87 53 -164 131t-106 143z" />
<glyph unicode="&#xd3;" horiz-adv-x="1531" d="M133 612q0 159 54 302t148 247.5t228 166t287 61.5q180 0 314.5 -83t204 -226.5t69.5 -327.5q0 -159 -54 -302t-148 -247.5t-228 -166t-287 -61.5q-180 0 -315 83.5t-204 227t-69 326.5zM283 608q0 -229 114.5 -364t323.5 -135q164 0 294 85.5t201.5 233.5t71.5 330 q0 228 -114.5 362.5t-323.5 134.5q-164 0 -294 -85t-201.5 -232.5t-71.5 -329.5zM805 1505q123 112 219 238l129 -57q-36 -64 -123 -132t-182 -110z" />
<glyph unicode="&#xd4;" horiz-adv-x="1531" d="M133 612q0 159 54 302t148 247.5t228 166t287 61.5q180 0 314.5 -83t204 -226.5t69.5 -327.5q0 -159 -54 -302t-148 -247.5t-228 -166t-287 -61.5q-180 0 -315 83.5t-204 227t-69 326.5zM283 608q0 -229 114.5 -364t323.5 -135q164 0 294 85.5t201.5 233.5t71.5 330 q0 228 -114.5 362.5t-323.5 134.5q-164 0 -294 -85t-201.5 -232.5t-71.5 -329.5zM561 1534q153 91 299 209h111q36 -51 96.5 -114t116.5 -101l-51 -70q-69 29 -133 76.5t-101 91.5q-42 -42 -127.5 -91t-171.5 -77z" />
<glyph unicode="&#xd5;" horiz-adv-x="1531" d="M133 612q0 159 54 302t148 247.5t228 166t287 61.5q180 0 314.5 -83t204 -226.5t69.5 -327.5q0 -159 -54 -302t-148 -247.5t-228 -166t-287 -61.5q-180 0 -315 83.5t-204 227t-69 326.5zM283 608q0 -229 114.5 -364t323.5 -135q164 0 294 85.5t201.5 233.5t71.5 330 q0 228 -114.5 362.5t-323.5 134.5q-164 0 -294 -85t-201.5 -232.5t-71.5 -329.5zM557 1530q36 74 87 116t108 42q40 0 137.5 -38t136.5 -38q70 0 129 76l55 -43q-36 -74 -86.5 -116t-107.5 -42q-40 0 -138 38t-137 38q-70 0 -129 -76z" />
<glyph unicode="&#xd6;" horiz-adv-x="1531" d="M133 612q0 159 54 302t148 247.5t228 166t287 61.5q180 0 314.5 -83t204 -226.5t69.5 -327.5q0 -159 -54 -302t-148 -247.5t-228 -166t-287 -61.5q-180 0 -315 83.5t-204 227t-69 326.5zM283 608q0 -229 114.5 -364t323.5 -135q164 0 294 85.5t201.5 233.5t71.5 330 q0 228 -114.5 362.5t-323.5 134.5q-164 0 -294 -85t-201.5 -232.5t-71.5 -329.5zM588 1487l30 135h130l-31 -135h-129zM995 1487l31 135h129l-31 -135h-129z" />
<glyph unicode="&#xd7;" d="M84 268l432 363l-278 360l90 70l274 -356l432 360l74 -86l-436 -365l280 -362l-90 -70l-276 359l-428 -359z" />
<glyph unicode="&#xd8;" horiz-adv-x="1531" d="M133 612q0 159 54 302t148 247.5t228 166t287 61.5q200 0 344 -103l76 96l73 -57l-77 -100q172 -178 172 -473q0 -159 -54 -302t-148 -247.5t-228 -166t-287 -61.5q-206 0 -348 105l-76 -98l-74 57l80 102q-170 176 -170 471zM283 608q0 -224 106 -354l721 924 q-107 77 -260 77q-164 0 -294 -85t-201.5 -232.5t-71.5 -329.5zM457 186q106 -77 264 -77q164 0 294 85.5t201.5 233.5t71.5 330q0 224 -108 356z" />
<glyph unicode="&#xd9;" horiz-adv-x="1439" d="M156 391q0 66 20 156l174 817h139l-178 -838q-16 -75 -16 -116q0 -137 90 -219t246 -82q183 0 305.5 103t163.5 296l182 856h139l-186 -877q-51 -240 -212 -376t-402 -136q-202 0 -333.5 116.5t-131.5 299.5zM668 1720l141 23q30 -53 82 -120.5t102 -117.5l-55 -59 q-87 53 -164 131t-106 143z" />
<glyph unicode="&#xda;" horiz-adv-x="1439" d="M156 391q0 66 20 156l174 817h139l-178 -838q-16 -75 -16 -116q0 -137 90 -219t246 -82q183 0 305.5 103t163.5 296l182 856h139l-186 -877q-51 -240 -212 -376t-402 -136q-202 0 -333.5 116.5t-131.5 299.5zM831 1505q126 115 220 238l129 -57q-36 -63 -123.5 -131.5 t-182.5 -110.5z" />
<glyph unicode="&#xdb;" horiz-adv-x="1439" d="M156 391q0 66 20 156l174 817h139l-178 -838q-16 -75 -16 -116q0 -137 90 -219t246 -82q183 0 305.5 103t163.5 296l182 856h139l-186 -877q-51 -240 -212 -376t-402 -136q-202 0 -333.5 116.5t-131.5 299.5zM596 1534q153 91 299 209h111q36 -51 96.5 -114t116.5 -101 l-52 -70q-69 29 -132 76.5t-101 91.5q-42 -42 -127.5 -91t-171.5 -77z" />
<glyph unicode="&#xdc;" horiz-adv-x="1439" d="M156 391q0 66 20 156l174 817h139l-178 -838q-16 -75 -16 -116q0 -137 90 -219t246 -82q183 0 305.5 103t163.5 296l182 856h139l-186 -877q-51 -240 -212 -376t-402 -136q-202 0 -333.5 116.5t-131.5 299.5zM641 1487l31 135h129l-31 -135h-129zM1049 1487l30 135h129 l-30 -135h-129z" />
<glyph unicode="&#xdd;" d="M162 1364h153l279 -666l557 666h172l-682 -805l-119 -559h-143l119 561zM692 1505q123 112 219 238l129 -57q-36 -64 -123 -132t-182 -110z" />
<glyph unicode="&#xde;" horiz-adv-x="1275" d="M76 0l291 1364h135l-47 -221h350q211 0 322.5 -100t111.5 -273q0 -91 -31.5 -169t-93.5 -139t-162.5 -95.5t-230.5 -34.5h-436l-70 -332h-139zM311 461h430q177 0 263 85.5t86 221.5q0 116 -74 180t-228 64h-358z" />
<glyph unicode="&#xdf;" horiz-adv-x="1228" d="M51 0l238 1128q38 182 152.5 270.5t281.5 88.5q194 0 309 -105t115 -266q0 -122 -80.5 -216t-202.5 -132q87 -40 153 -134t66 -220q0 -193 -143 -316t-362 -123q-132 0 -248 50l47 118q97 -47 215 -47q156 0 256 87.5t100 236.5q0 146 -98.5 227.5t-257.5 81.5h-47 l22 119h142q134 0 219.5 66t85.5 192q0 67 -26 119.5t-69 83.5t-94 47t-106 16q-252 0 -309 -260l-236 -1112h-123z" />
<glyph unicode="&#xe0;" horiz-adv-x="1153" d="M33 274q0 74 27 132t66 91.5t96.5 57t102.5 33t101 16.5q22 3 63.5 7t66.5 7t63 8.5t62.5 12.5t54.5 16.5t48 23t35 31t25 40.5t8 51q0 45 -20.5 77t-56 48.5t-74 24t-83.5 7.5q-205 0 -356 -120l-67 96q196 145 428 145q161 0 260.5 -70t99.5 -198q0 -44 -12 -94 l-105 -481q-10 -50 -10 -68q0 -70 82 -70q44 0 86 27l29 -115q-51 -28 -133 -28t-133.5 40t-51.5 113q0 17 2 27q-141 -187 -370 -187q-156 0 -245 79t-89 220zM166 283q0 -97 60 -142t159 -45q140 0 250.5 86.5t148.5 257.5l37 170q-26 -23 -58 -40.5t-58 -28t-67.5 -19 t-63.5 -11.5t-71 -9t-67 -8q-135 -19 -202.5 -64.5t-67.5 -146.5zM436 1462l142 23q30 -53 82 -120.5t102 -117.5l-55 -59q-87 53 -164.5 131t-106.5 143z" />
<glyph unicode="&#xe1;" horiz-adv-x="1153" d="M33 274q0 74 27 132t66 91.5t96.5 57t102.5 33t101 16.5q22 3 63.5 7t66.5 7t63 8.5t62.5 12.5t54.5 16.5t48 23t35 31t25 40.5t8 51q0 45 -20.5 77t-56 48.5t-74 24t-83.5 7.5q-205 0 -356 -120l-67 96q196 145 428 145q161 0 260.5 -70t99.5 -198q0 -44 -12 -94 l-105 -481q-10 -50 -10 -68q0 -70 82 -70q44 0 86 27l29 -115q-51 -28 -133 -28t-133.5 40t-51.5 113q0 17 2 27q-141 -187 -370 -187q-156 0 -245 79t-89 220zM166 283q0 -97 60 -142t159 -45q140 0 250.5 86.5t148.5 257.5l37 170q-26 -23 -58 -40.5t-58 -28t-67.5 -19 t-63.5 -11.5t-71 -9t-67 -8q-135 -19 -202.5 -64.5t-67.5 -146.5zM559 1247q123 112 219 238l129 -58q-36 -63 -122.5 -131t-182.5 -110z" />
<glyph unicode="&#xe2;" horiz-adv-x="1153" d="M33 274q0 74 27 132t66 91.5t96.5 57t102.5 33t101 16.5q22 3 63.5 7t66.5 7t63 8.5t62.5 12.5t54.5 16.5t48 23t35 31t25 40.5t8 51q0 45 -20.5 77t-56 48.5t-74 24t-83.5 7.5q-205 0 -356 -120l-67 96q196 145 428 145q161 0 260.5 -70t99.5 -198q0 -44 -12 -94 l-105 -481q-10 -50 -10 -68q0 -70 82 -70q44 0 86 27l29 -115q-51 -28 -133 -28t-133.5 40t-51.5 113q0 17 2 27q-141 -187 -370 -187q-156 0 -245 79t-89 220zM166 283q0 -97 60 -142t159 -45q140 0 250.5 86.5t148.5 257.5l37 170q-26 -23 -58 -40.5t-58 -28t-67.5 -19 t-63.5 -11.5t-71 -9t-67 -8q-135 -19 -202.5 -64.5t-67.5 -146.5zM360 1276q153 91 299 209h111q36 -51 96.5 -114t116.5 -101l-51 -70q-69 29 -133 76.5t-101 91.5q-42 -42 -127.5 -91t-171.5 -77z" />
<glyph unicode="&#xe3;" horiz-adv-x="1153" d="M33 274q0 74 27 132t66 91.5t96.5 57t102.5 33t101 16.5q22 3 63.5 7t66.5 7t63 8.5t62.5 12.5t54.5 16.5t48 23t35 31t25 40.5t8 51q0 45 -20.5 77t-56 48.5t-74 24t-83.5 7.5q-205 0 -356 -120l-67 96q196 145 428 145q161 0 260.5 -70t99.5 -198q0 -44 -12 -94 l-105 -481q-10 -50 -10 -68q0 -70 82 -70q44 0 86 27l29 -115q-51 -28 -133 -28t-133.5 40t-51.5 113q0 17 2 27q-141 -187 -370 -187q-156 0 -245 79t-89 220zM166 283q0 -97 60 -142t159 -45q140 0 250.5 86.5t148.5 257.5l37 170q-26 -23 -58 -40.5t-58 -28t-67.5 -19 t-63.5 -11.5t-71 -9t-67 -8q-135 -19 -202.5 -64.5t-67.5 -146.5zM354 1272q36 74 87 116t108 42q40 0 137.5 -38t136.5 -38q70 0 129 76l56 -44q-36 -73 -87 -115t-108 -42q-40 0 -137.5 38t-136.5 38q-70 0 -129 -76z" />
<glyph unicode="&#xe4;" horiz-adv-x="1153" d="M33 274q0 74 27 132t66 91.5t96.5 57t102.5 33t101 16.5q22 3 63.5 7t66.5 7t63 8.5t62.5 12.5t54.5 16.5t48 23t35 31t25 40.5t8 51q0 45 -20.5 77t-56 48.5t-74 24t-83.5 7.5q-205 0 -356 -120l-67 96q196 145 428 145q161 0 260.5 -70t99.5 -198q0 -44 -12 -94 l-105 -481q-10 -50 -10 -68q0 -70 82 -70q44 0 86 27l29 -115q-51 -28 -133 -28t-133.5 40t-51.5 113q0 17 2 27q-141 -187 -370 -187q-156 0 -245 79t-89 220zM166 283q0 -97 60 -142t159 -45q140 0 250.5 86.5t148.5 257.5l37 170q-26 -23 -58 -40.5t-58 -28t-67.5 -19 t-63.5 -11.5t-71 -9t-67 -8q-135 -19 -202.5 -64.5t-67.5 -146.5zM395 1229l31 135h129l-31 -135h-129zM803 1229l31 135h129l-31 -135h-129z" />
<glyph unicode="&#xe5;" horiz-adv-x="1153" d="M33 274q0 74 27 132t66 91.5t96.5 57t102.5 33t101 16.5q22 3 63.5 7t66.5 7t63 8.5t62.5 12.5t54.5 16.5t48 23t35 31t25 40.5t8 51q0 45 -20.5 77t-56 48.5t-74 24t-83.5 7.5q-205 0 -356 -120l-67 96q196 145 428 145q161 0 260.5 -70t99.5 -198q0 -44 -12 -94 l-105 -481q-10 -50 -10 -68q0 -70 82 -70q44 0 86 27l29 -115q-51 -28 -133 -28t-133.5 40t-51.5 113q0 17 2 27q-141 -187 -370 -187q-156 0 -245 79t-89 220zM166 283q0 -97 60 -142t159 -45q140 0 250.5 86.5t148.5 257.5l37 170q-26 -23 -58 -40.5t-58 -28t-67.5 -19 t-63.5 -11.5t-71 -9t-67 -8q-135 -19 -202.5 -64.5t-67.5 -146.5zM518 1395q0 85 60 146t145 61q84 0 143.5 -61t59.5 -146t-59 -145t-144 -60t-145 60t-60 145zM602 1395q0 -51 35 -86t86 -35q50 0 84.5 35t34.5 86t-35 87t-84 36q-51 0 -86 -36t-35 -87z" />
<glyph unicode="&#xe6;" horiz-adv-x="1880" d="M33 276q0 74 28 132t67 91t97.5 56.5t102 32.5t98.5 16q22 3 63.5 7t66.5 7t63 8.5t62.5 12.5t54.5 16.5t48 23t35 31t25 40.5t8 51q0 45 -20.5 77t-56.5 48.5t-75.5 24t-85.5 7.5q-201 0 -352 -120l-67 96q196 145 426 145q131 0 222 -46.5t122 -137.5q156 184 376 184 q135 0 237.5 -63t154 -163.5t51.5 -221.5q0 -74 -19 -133h-835q-2 -18 -2 -52q0 -154 97 -250t255 -96q191 0 313 144l88 -88q-172 -181 -407 -181q-163 0 -277.5 76.5t-160.5 204.5q-76 -142 -198.5 -211.5t-264.5 -69.5q-157 0 -248.5 80t-91.5 221zM166 283 q0 -97 60 -142t159 -45q140 0 250.5 86.5t148.5 257.5l37 170q-26 -23 -58 -40.5t-58 -28t-67.5 -19t-63.5 -11.5t-71 -9t-67 -8q-135 -19 -202.5 -64.5t-67.5 -146.5zM948 608h701q2 12 2 29q0 147 -87 233t-225 86q-148 0 -254 -97t-137 -251z" />
<glyph unicode="&#xe7;" horiz-adv-x="1089" d="M92 463q0 166 72.5 307t202 225t286.5 84q130 0 229.5 -59t155.5 -162l-112 -74q-91 172 -277 172q-126 0 -223.5 -68t-148 -178t-50.5 -239q0 -164 83 -269.5t235 -105.5q175 0 305 168l90 -84q-164 -205 -403 -205q-25 0 -37 2q59 -72 59 -147t-54.5 -119.5 t-131.5 -44.5q-64 0 -122.5 31.5t-98.5 85.5l59 53q24 -30 64 -51t77 -21q45 0 73 29.5t28 73.5q0 60 -41 125q-151 38 -235.5 165t-84.5 306z" />
<glyph unicode="&#xe8;" horiz-adv-x="1177" d="M88 469q0 119 41 230t112 195t175 134.5t223 50.5q102 0 186.5 -36.5t139.5 -98.5t85.5 -142.5t30.5 -170.5q0 -77 -18 -133h-836q-2 -18 -2 -52q0 -154 97.5 -250t255.5 -96q191 0 313 144l88 -88q-172 -181 -408 -181q-221 0 -352 137t-131 357zM246 608h700q2 12 2 29 q0 147 -86.5 233t-224.5 86q-148 0 -254 -97t-137 -251zM428 1462l141 23q30 -52 82.5 -120t102.5 -118l-56 -59q-87 53 -164 131t-106 143z" />
<glyph unicode="&#xe9;" horiz-adv-x="1177" d="M88 469q0 119 41 230t112 195t175 134.5t223 50.5q102 0 186.5 -36.5t139.5 -98.5t85.5 -142.5t30.5 -170.5q0 -77 -18 -133h-836q-2 -18 -2 -52q0 -154 97.5 -250t255.5 -96q191 0 313 144l88 -88q-172 -181 -408 -181q-221 0 -352 137t-131 357zM246 608h700q2 12 2 29 q0 147 -86.5 233t-224.5 86q-148 0 -254 -97t-137 -251zM592 1247q123 112 219 238l129 -58q-36 -63 -122.5 -131t-182.5 -110z" />
<glyph unicode="&#xea;" horiz-adv-x="1177" d="M88 469q0 119 41 230t112 195t175 134.5t223 50.5q102 0 186.5 -36.5t139.5 -98.5t85.5 -142.5t30.5 -170.5q0 -77 -18 -133h-836q-2 -18 -2 -52q0 -154 97.5 -250t255.5 -96q191 0 313 144l88 -88q-172 -181 -408 -181q-221 0 -352 137t-131 357zM246 608h700q2 12 2 29 q0 147 -86.5 233t-224.5 86q-148 0 -254 -97t-137 -251zM346 1276q153 91 299 209h111q36 -51 96.5 -114t116.5 -101l-51 -70q-69 29 -133 76.5t-101 91.5q-42 -42 -127.5 -91t-171.5 -77z" />
<glyph unicode="&#xeb;" horiz-adv-x="1177" d="M88 469q0 119 41 230t112 195t175 134.5t223 50.5q102 0 186.5 -36.5t139.5 -98.5t85.5 -142.5t30.5 -170.5q0 -77 -18 -133h-836q-2 -18 -2 -52q0 -154 97.5 -250t255.5 -96q191 0 313 144l88 -88q-172 -181 -408 -181q-221 0 -352 137t-131 357zM246 608h700q2 12 2 29 q0 147 -86.5 233t-224.5 86q-148 0 -254 -97t-137 -251zM410 1229l30 135h129l-30 -135h-129zM817 1229l31 135h129l-31 -135h-129z" />
<glyph unicode="&#xec;" horiz-adv-x="475" d="M49 0l223 1055h127l-223 -1055h-127zM135 1462l141 23q30 -52 82.5 -120t102.5 -118l-55 -59q-87 53 -164.5 131t-106.5 143z" />
<glyph unicode="&#xed;" horiz-adv-x="475" d="M49 0l223 1055h127l-223 -1055h-127zM305 1247q123 112 219 238l129 -58q-36 -63 -122.5 -131t-182.5 -110z" />
<glyph unicode="&#xee;" horiz-adv-x="475" d="M49 0l223 1055h127l-223 -1055h-127zM55 1276q153 91 299 209h111q36 -51 96.5 -114t116.5 -101l-51 -70q-69 29 -133 76.5t-101 91.5q-42 -42 -127.5 -91t-171.5 -77z" />
<glyph unicode="&#xef;" horiz-adv-x="475" d="M49 0l223 1055h127l-223 -1055h-127zM147 1229l29 133h125l-29 -133h-125zM473 1229l29 133h125l-27 -133h-127z" />
<glyph unicode="&#xf0;" horiz-adv-x="1228" d="M86 459q0 151 69 277.5t188 199t259 72.5q110 0 207 -45t147 -117q-63 198 -200 350l-248 -125l-35 74l223 112q-78 72 -174 121l70 107q124 -73 219 -168l242 123l34 -74l-217 -111q238 -282 238 -643q0 -154 -44.5 -277.5t-121.5 -201t-176 -118t-211 -40.5 q-144 0 -252 66t-162.5 175t-54.5 243zM221 453q0 -73 20 -135.5t59.5 -112t104.5 -77.5t150 -28q127 0 222 60t142.5 156.5t47.5 211.5q0 153 -87.5 255t-256.5 102q-78 0 -144 -23.5t-113 -64.5t-80 -96t-49 -118t-16 -130z" />
<glyph unicode="&#xf1;" horiz-adv-x="1200" d="M49 0l223 1055h127l-37 -172q164 196 388 196q151 0 234 -87.5t83 -225.5q0 -47 -14 -115l-142 -651h-127l138 641q14 65 14 107q0 99 -56.5 153.5t-162.5 54.5q-148 0 -266.5 -107t-153.5 -271l-121 -578h-127zM459 1272q36 74 86.5 116t107.5 42q40 0 138 -38t137 -38 q70 0 129 76l55 -44q-36 -74 -86.5 -115.5t-107.5 -41.5q-40 0 -138 38t-137 38q-70 0 -129 -76z" />
<glyph unicode="&#xf2;" horiz-adv-x="1212" d="M92 469q0 165 68.5 304t195 222.5t285.5 83.5q212 0 332.5 -137t120.5 -356q0 -124 -40.5 -235.5t-111 -194.5t-173.5 -132t-222 -49q-212 0 -333.5 137.5t-121.5 356.5zM227 469q0 -162 83.5 -267.5t234.5 -105.5q120 0 216 69t146.5 181t50.5 242q0 162 -82 265 t-233 103q-121 0 -217.5 -68t-147.5 -179t-51 -240zM434 1462l141 23q30 -52 82.5 -120t102.5 -118l-55 -59q-87 53 -164.5 131t-106.5 143z" />
<glyph unicode="&#xf3;" horiz-adv-x="1212" d="M92 469q0 165 68.5 304t195 222.5t285.5 83.5q212 0 332.5 -137t120.5 -356q0 -124 -40.5 -235.5t-111 -194.5t-173.5 -132t-222 -49q-212 0 -333.5 137.5t-121.5 356.5zM227 469q0 -162 83.5 -267.5t234.5 -105.5q120 0 216 69t146.5 181t50.5 242q0 162 -82 265 t-233 103q-121 0 -217.5 -68t-147.5 -179t-51 -240zM608 1247q123 112 219 238l129 -58q-36 -63 -122.5 -131t-182.5 -110z" />
<glyph unicode="&#xf4;" horiz-adv-x="1212" d="M92 469q0 165 68.5 304t195 222.5t285.5 83.5q212 0 332.5 -137t120.5 -356q0 -124 -40.5 -235.5t-111 -194.5t-173.5 -132t-222 -49q-212 0 -333.5 137.5t-121.5 356.5zM227 469q0 -162 83.5 -267.5t234.5 -105.5q120 0 216 69t146.5 181t50.5 242q0 162 -82 265 t-233 103q-121 0 -217.5 -68t-147.5 -179t-51 -240zM358 1276q153 91 299 209h111q36 -51 96.5 -114t116.5 -101l-51 -70q-69 29 -133 76.5t-101 91.5q-42 -42 -127.5 -91t-171.5 -77z" />
<glyph unicode="&#xf5;" horiz-adv-x="1212" d="M92 469q0 165 68.5 304t195 222.5t285.5 83.5q212 0 332.5 -137t120.5 -356q0 -124 -40.5 -235.5t-111 -194.5t-173.5 -132t-222 -49q-212 0 -333.5 137.5t-121.5 356.5zM227 469q0 -162 83.5 -267.5t234.5 -105.5q120 0 216 69t146.5 181t50.5 242q0 162 -82 265 t-233 103q-121 0 -217.5 -68t-147.5 -179t-51 -240zM354 1272q36 74 87 116t108 42q40 0 137.5 -38t136.5 -38q70 0 129 76l56 -44q-36 -73 -87 -115t-108 -42q-40 0 -137.5 38t-136.5 38q-70 0 -129 -76z" />
<glyph unicode="&#xf6;" horiz-adv-x="1212" d="M92 469q0 165 68.5 304t195 222.5t285.5 83.5q212 0 332.5 -137t120.5 -356q0 -124 -40.5 -235.5t-111 -194.5t-173.5 -132t-222 -49q-212 0 -333.5 137.5t-121.5 356.5zM227 469q0 -162 83.5 -267.5t234.5 -105.5q120 0 216 69t146.5 181t50.5 242q0 162 -82 265 t-233 103q-121 0 -217.5 -68t-147.5 -179t-51 -240zM393 1229l31 135h129l-31 -135h-129zM801 1229l30 135h130l-31 -135h-129z" />
<glyph unicode="&#xf7;" d="M117 565l24 115h924l-25 -115h-923zM403 252q0 44 32.5 76t76.5 32t76.5 -32t32.5 -76t-32.5 -76.5t-76.5 -32.5t-76.5 32.5t-32.5 76.5zM561 993q0 44 32.5 76.5t76.5 32.5t76 -32.5t32 -76.5t-32 -76t-76 -32t-76.5 32t-32.5 76z" />
<glyph unicode="&#xf8;" horiz-adv-x="1212" d="M92 469q0 165 68.5 304t195 222.5t285.5 83.5q150 0 262 -75l55 69l74 -57l-59 -76q121 -137 121 -354q0 -124 -40.5 -235.5t-111 -194.5t-173.5 -132t-222 -49q-155 0 -264 76l-56 -69l-73 57l57 76q-119 134 -119 354zM227 469q0 -148 68 -248l530 680q-77 55 -182 55 q-121 0 -217.5 -68t-147.5 -179t-51 -240zM360 152q75 -56 185 -56q120 0 216 69t146.5 181t50.5 242q0 148 -67 246z" />
<glyph unicode="&#xf9;" horiz-adv-x="1200" d="M106 289q0 41 15 114l141 652h127l-137 -641q-14 -65 -14 -107q0 -99 56.5 -154t162.5 -55q148 0 266.5 107.5t153.5 271.5l120 578h127l-223 -1055h-127l37 172q-165 -197 -387 -197q-151 0 -234.5 88t-83.5 226zM463 1462l141 23q30 -53 82 -120.5t102 -117.5l-55 -59 q-87 53 -164 131t-106 143z" />
<glyph unicode="&#xfa;" horiz-adv-x="1200" d="M106 289q0 41 15 114l141 652h127l-137 -641q-14 -65 -14 -107q0 -99 56.5 -154t162.5 -55q148 0 266.5 107.5t153.5 271.5l120 578h127l-223 -1055h-127l37 172q-165 -197 -387 -197q-151 0 -234.5 88t-83.5 226zM641 1247q123 112 219 238l129 -58q-36 -63 -122.5 -131 t-182.5 -110z" />
<glyph unicode="&#xfb;" horiz-adv-x="1200" d="M106 289q0 41 15 114l141 652h127l-137 -641q-14 -65 -14 -107q0 -99 56.5 -154t162.5 -55q148 0 266.5 107.5t153.5 271.5l120 578h127l-223 -1055h-127l37 172q-165 -197 -387 -197q-151 0 -234.5 88t-83.5 226zM412 1276q153 91 299 209h110q36 -51 96.5 -114 t116.5 -101l-51 -70q-69 29 -132 76.5t-101 91.5q-42 -42 -127.5 -91t-171.5 -77z" />
<glyph unicode="&#xfc;" horiz-adv-x="1200" d="M106 289q0 41 15 114l141 652h127l-137 -641q-14 -65 -14 -107q0 -99 56.5 -154t162.5 -55q148 0 266.5 107.5t153.5 271.5l120 578h127l-223 -1055h-127l37 172q-165 -197 -387 -197q-151 0 -234.5 88t-83.5 226zM463 1229l31 135h129l-31 -135h-129zM870 1229l31 135 h129l-31 -135h-129z" />
<glyph unicode="&#xfd;" horiz-adv-x="1036" d="M-139 -319l78 100q51 -41 112 -41q73 0 128.5 50t109.5 140l49 82l-215 1043h135l178 -883l510 883h146l-652 -1108q-48 -86 -85.5 -140t-83.5 -99t-98.5 -65t-117.5 -20q-124 0 -194 58zM563 1247q123 112 219 238l129 -58q-36 -63 -122.5 -131t-182.5 -110z" />
<glyph unicode="&#xfe;" horiz-adv-x="1277" d="M-25 -356l385 1818h127l-120 -567q151 184 366 184q193 0 310.5 -137t117.5 -352q0 -165 -70 -305.5t-195.5 -225t-277.5 -84.5q-126 0 -230 62.5t-161 195.5l-125 -589h-127zM281 455q0 -158 84 -257.5t241 -99.5q128 0 225 70t145 180t48 240q0 104 -31.5 185 t-103.5 132t-176 51q-98 0 -181 -44t-137 -115.5t-84 -160.5t-30 -181z" />
<glyph unicode="&#xff;" horiz-adv-x="1036" d="M-139 -319l78 100q51 -41 112 -41q73 0 128.5 50t109.5 140l49 82l-215 1043h135l178 -883l510 883h146l-652 -1108q-48 -86 -85.5 -140t-83.5 -99t-98.5 -65t-117.5 -20q-124 0 -194 58zM356 1229l31 135h129l-31 -135h-129zM764 1229l31 135h129l-31 -135h-129z" />
<glyph unicode="&#x152;" horiz-adv-x="2029" d="M135 598q0 157 49.5 295.5t141 243.5t231 166t309.5 61h1213l-29 -131h-743l-95 -445h623l-27 -129h-624l-111 -528h744l-29 -131h-1059q-144 0 -258.5 46t-187 128t-110.5 189.5t-38 234.5zM283 606q0 -225 112.5 -350t337.5 -125h199l235 1102h-315q-133 0 -241.5 -49 t-179.5 -134t-109.5 -199t-38.5 -245z" />
<glyph unicode="&#x153;" horiz-adv-x="2033" d="M92 469q0 165 68.5 304t195 222.5t285.5 83.5q149 0 253.5 -70.5t152.5 -195.5q73 123 190 194.5t262 71.5q204 0 323.5 -131.5t119.5 -333.5q0 -72 -19 -116h-836q-2 -18 -2 -52q0 -155 92.5 -250.5t247.5 -95.5q187 0 316 142l86 -86q-172 -181 -404 -181 q-158 0 -267 69t-161 194q-71 -122 -187 -192.5t-261 -70.5q-212 0 -333.5 137.5t-121.5 356.5zM227 469q0 -162 83.5 -267.5t234.5 -105.5q120 0 216 69t146.5 181t50.5 242q0 162 -82 265t-233 103q-121 0 -217.5 -68t-147.5 -179t-51 -240zM1106 608h700 q7 165 -79.5 256.5t-227.5 91.5q-148 0 -255 -97t-138 -251z" />
<glyph unicode="&#x178;" d="M162 1364h153l279 -666l557 666h172l-682 -805l-119 -559h-143l119 561zM483 1487l31 135h129l-31 -135h-129zM891 1487l31 135h129l-31 -135h-129z" />
<glyph unicode="&#x2c6;" horiz-adv-x="638" d="M152 1276q153 91 299 209h110q36 -51 96.5 -114t116.5 -101l-51 -70q-69 29 -133 76.5t-101 91.5q-42 -42 -127.5 -91t-171.5 -77z" />
<glyph unicode="&#x2dc;" horiz-adv-x="638" d="M145 1272q36 74 87 116t108 42q40 0 137.5 -38t136.5 -38q70 0 129 76l56 -44q-36 -73 -87 -115t-108 -42q-40 0 -137.5 38t-136.5 38q-70 0 -129 -76z" />
<glyph unicode="&#x2000;" horiz-adv-x="871" />
<glyph unicode="&#x2001;" horiz-adv-x="1743" />
<glyph unicode="&#x2002;" horiz-adv-x="871" />
<glyph unicode="&#x2003;" horiz-adv-x="1743" />
<glyph unicode="&#x2004;" horiz-adv-x="581" />
<glyph unicode="&#x2005;" horiz-adv-x="435" />
<glyph unicode="&#x2006;" horiz-adv-x="290" />
<glyph unicode="&#x2007;" horiz-adv-x="290" />
<glyph unicode="&#x2008;" horiz-adv-x="217" />
<glyph unicode="&#x2009;" horiz-adv-x="348" />
<glyph unicode="&#x200a;" horiz-adv-x="96" />
<glyph unicode="&#x2010;" horiz-adv-x="790" d="M125 518l25 115h509l-24 -115h-510z" />
<glyph unicode="&#x2011;" horiz-adv-x="790" d="M125 518l25 115h509l-24 -115h-510z" />
<glyph unicode="&#x2012;" horiz-adv-x="790" d="M125 518l25 115h509l-24 -115h-510z" />
<glyph unicode="&#x2013;" d="M119 565l24 115h924l-25 -115h-923z" />
<glyph unicode="&#x2014;" horiz-adv-x="1908" d="M133 565l25 115h1630l-25 -115h-1630z" />
<glyph unicode="&#x2018;" horiz-adv-x="436" d="M203 940l37 170q22 99 69.5 167t126.5 114l35 -60q-112 -66 -139 -180l-13 -51h89l-35 -160h-170z" />
<glyph unicode="&#x2019;" horiz-adv-x="421" d="M199 973q112 66 139 180l12 51h-88l35 160h170l-37 -170q-41 -190 -197 -281z" />
<glyph unicode="&#x201a;" horiz-adv-x="487" d="M-25 -231q113 67 140 180l12 51h-88l35 160h170l-37 -170q-41 -190 -197 -281z" />
<glyph unicode="&#x201c;" horiz-adv-x="765" d="M203 940l37 170q22 99 69.5 167t126.5 114l35 -60q-112 -66 -139 -180l-13 -51h89l-35 -160h-170zM532 940l37 170q41 190 197 281l35 -60q-112 -66 -139 -180l-13 -51h88l-35 -160h-170z" />
<glyph unicode="&#x201d;" horiz-adv-x="751" d="M199 973q112 66 139 180l12 51h-88l35 160h170l-37 -170q-41 -190 -197 -281zM528 973q113 67 140 180l12 51h-88l35 160h170l-37 -170q-41 -190 -197 -281z" />
<glyph unicode="&#x201e;" horiz-adv-x="817" d="M-25 -231q113 67 140 180l12 51h-88l35 160h170l-37 -170q-41 -190 -197 -281zM305 -231q112 66 139 180l13 51h-88l34 160h170l-36 -170q-41 -190 -197 -281z" />
<glyph unicode="&#x2022;" horiz-adv-x="739" d="M135 682q0 104 73 178t177 74t178 -74t74 -178t-74 -177t-178 -73t-177 73t-73 177z" />
<glyph unicode="&#x2026;" horiz-adv-x="1329" d="M39 0l37 172h170l-37 -172h-170zM459 0l37 172h170l-37 -172h-170zM881 0l37 172h169l-34 -172h-172z" />
<glyph unicode="&#x202f;" horiz-adv-x="348" />
<glyph unicode="&#x2039;" horiz-adv-x="567" d="M66 508l8 41l356 383l78 -84l-328 -334l185 -332l-105 -57z" />
<glyph unicode="&#x203a;" horiz-adv-x="567" d="M35 209l327 334l-184 331l105 58l194 -383l-8 -41l-356 -383z" />
<glyph unicode="&#x205f;" horiz-adv-x="435" />
<glyph unicode="&#x20ac;" horiz-adv-x="1519" d="M90 500l21 96h145v14q0 87 14 158h-123l21 96h125q72 233 258.5 379t431.5 146q169 0 298.5 -73.5t201.5 -203.5l-125 -74q-120 217 -379 217q-189 0 -330.5 -106.5t-204.5 -284.5h623l-20 -96h-629q-15 -74 -15 -156v-16h607l-21 -96h-577q27 -182 138 -286.5 t286 -104.5q126 0 227 53.5t170 146.5l106 -82q-199 -252 -505 -252q-234 0 -387.5 144.5t-184.5 380.5h-172z" />
<glyph unicode="&#x2122;" horiz-adv-x="1429" d="M264 1286l17 80h469l-17 -80h-192l-103 -481h-88l103 481h-189zM729 805l119 561h137l57 -485l267 485h131l-119 -561h-86l98 467l-254 -467h-112l-56 467l-98 -467h-84z" />
<glyph unicode="&#xe000;" horiz-adv-x="1054" d="M0 0v1055h1055v-1055h-1055z" />
</font>
</defs>
</svg>
